<svg width="272" height="17" viewBox="0 0 272 17" fill="none" xmlns="http://www.w3.org/2000/svg">
<g filter="url(#filter0_i_1046_68)">
<path d="M10.0994 0.0511498V13.1421H8.13068V1.73865H1.96874V13.1421H-5.43892e-06V0.0511498H10.0994ZM17.1019 13.3402C16.1815 13.3402 15.3782 13.1293 14.6921 12.7074C14.006 12.2855 13.4734 11.6953 13.0941 10.9368C12.7148 10.1783 12.5252 9.29192 12.5252 8.27771C12.5252 7.25925 12.7148 6.36862 13.0941 5.60584C13.4734 4.84305 14.006 4.25072 14.6921 3.82885C15.3782 3.40697 16.1815 3.19604 17.1019 3.19604C18.0224 3.19604 18.8256 3.40697 19.5117 3.82885C20.1978 4.25072 20.7305 4.84305 21.1097 5.60584C21.489 6.36862 21.6786 7.25925 21.6786 8.27771C21.6786 9.29192 21.489 10.1783 21.1097 10.9368C20.7305 11.6953 20.1978 12.2855 19.5117 12.7074C18.8256 13.1293 18.0224 13.3402 17.1019 13.3402ZM17.1083 11.7358C17.7049 11.7358 18.1992 11.5781 18.5913 11.2628C18.9833 10.9475 19.2731 10.5277 19.4606 10.0036C19.6523 9.47942 19.7482 8.902 19.7482 8.27132C19.7482 7.6449 19.6523 7.06962 19.4606 6.54547C19.2731 6.01706 18.9833 5.59305 18.5913 5.27345C18.1992 4.95385 17.7049 4.79405 17.1083 4.79405C16.5075 4.79405 16.0089 4.95385 15.6126 5.27345C15.2205 5.59305 14.9286 6.01706 14.7369 6.54547C14.5494 7.06962 14.4556 7.6449 14.4556 8.27132C14.4556 8.902 14.5494 9.47942 14.7369 10.0036C14.9286 10.5277 15.2205 10.9475 15.6126 11.2628C16.0089 11.5781 16.5075 11.7358 17.1083 11.7358ZM22.7988 13.1421L26.6021 8.11791L22.8436 3.32388H25.068L28.1042 7.402H28.7882V3.32388H30.6994V7.402H31.3642L34.4004 3.32388H36.6248L32.8855 8.11791L36.6696 13.1421H34.4004L31.3386 9.05115H30.6994V13.1421H28.7882V9.05115H28.149L25.068 13.1421H22.7988ZM41.4524 13.3594C40.8303 13.3594 40.2678 13.2443 39.7649 13.0142C39.2621 12.7798 38.8636 12.4411 38.5696 11.9979C38.2798 11.5547 38.1349 11.0114 38.1349 10.3679C38.1349 9.81393 38.2415 9.35797 38.4545 9.00001C38.6676 8.64206 38.9553 8.35868 39.3175 8.14987C39.6797 7.94107 40.0845 7.78339 40.532 7.67686C40.9794 7.57033 41.4354 7.48936 41.8999 7.43396C42.4879 7.36578 42.9652 7.31038 43.3317 7.26777C43.6981 7.22089 43.9645 7.14632 44.1307 7.04405C44.2969 6.94178 44.38 6.77558 44.38 6.54547V6.50072C44.38 5.94249 44.2223 5.50996 43.907 5.20314C43.5959 4.89632 43.1314 4.74291 42.5135 4.74291C41.87 4.74291 41.3629 4.88567 40.9922 5.17118C40.6257 5.45243 40.3722 5.76564 40.2315 6.11081L38.4354 5.70172C38.6484 5.10513 38.9595 4.62359 39.3686 4.25712C39.782 3.88638 40.2571 3.61791 40.794 3.45172C41.331 3.28126 41.8956 3.19604 42.4879 3.19604C42.88 3.19604 43.2954 3.24291 43.7344 3.33666C44.1776 3.42615 44.5909 3.59234 44.9744 3.83524C45.3622 4.07814 45.6797 4.42544 45.9268 4.87714C46.174 5.32459 46.2976 5.90626 46.2976 6.62217V13.1421H44.4311V11.7997H44.3544C44.2308 12.0469 44.0454 12.2898 43.7983 12.5284C43.5511 12.7671 43.2337 12.9652 42.8459 13.1229C42.4581 13.2806 41.9936 13.3594 41.4524 13.3594ZM41.8679 11.8253C42.3963 11.8253 42.848 11.7209 43.223 11.5121C43.6023 11.3033 43.8899 11.0306 44.0859 10.6939C44.2862 10.353 44.3864 9.98865 44.3864 9.60087V8.33524C44.3182 8.40342 44.1861 8.46734 43.9901 8.527C43.7983 8.5824 43.5788 8.63141 43.3317 8.67402C43.0845 8.71237 42.8437 8.74859 42.6094 8.78268C42.375 8.81251 42.179 8.83808 42.0213 8.85939C41.6506 8.90626 41.3118 8.9851 41.005 9.09589C40.7024 9.20669 40.4595 9.36649 40.2763 9.5753C40.0973 9.77984 40.0078 10.0526 40.0078 10.3935C40.0078 10.8665 40.1825 11.2244 40.532 11.4673C40.8814 11.706 41.3267 11.8253 41.8679 11.8253ZM48.0698 13.1421L48.0634 11.4865H48.4149C48.6877 11.4865 48.9157 11.429 49.0989 11.3139C49.2864 11.1946 49.4398 10.9943 49.5591 10.7131C49.6784 10.4318 49.7701 10.044 49.834 9.54973C49.8979 9.05115 49.9448 8.42473 49.9746 7.67047L50.1472 3.32388H56.9995V13.1421H55.1266V4.97302H51.9178L51.7644 8.30967C51.726 9.11933 51.6429 9.82672 51.5151 10.4318C51.3915 11.0369 51.2104 11.5419 50.9718 11.9467C50.7331 12.3473 50.4263 12.6477 50.0513 12.848C49.6763 13.044 49.2203 13.1421 48.6834 13.1421H48.0698ZM60.4048 16.8239C60.1193 16.8239 59.8594 16.8004 59.625 16.7536C59.3906 16.711 59.2159 16.6641 59.1008 16.6129L59.5611 15.0469C59.9105 15.1406 60.2216 15.1811 60.4943 15.1683C60.767 15.1556 61.0078 15.0533 61.2166 14.8615C61.4297 14.6698 61.6172 14.3565 61.7791 13.9219L62.0156 13.2699L58.4233 3.32388H60.4687L62.9553 10.9432H63.0575L65.544 3.32388H67.5959L63.5497 14.4524C63.3622 14.9638 63.1236 15.3963 62.8338 15.75C62.544 16.108 62.1989 16.3764 61.7983 16.5554C61.3977 16.7344 60.9332 16.8239 60.4048 16.8239ZM71.2649 10.4638L75.5923 3.32388H77.6506V13.1421H75.7777V5.99575L71.4695 13.1421H69.392V3.32388H71.2649V10.4638ZM74.7741 1.29938e-05H76.3466C76.3466 0.720184 76.0909 1.30612 75.5795 1.75783C75.0724 2.20527 74.3864 2.42899 73.5213 2.42899C72.6605 2.42899 71.9766 2.20527 71.4695 1.75783C70.9624 1.30612 70.7088 0.720184 70.7088 1.29938e-05H72.2749C72.2749 0.319616 72.3686 0.602996 72.5561 0.850155C72.7436 1.09305 73.0653 1.2145 73.5213 1.2145C73.9687 1.2145 74.2883 1.09305 74.4801 0.850155C74.6761 0.607258 74.7741 0.323877 74.7741 1.29938e-05ZM84.3558 13.3402C83.4055 13.3402 82.5874 13.125 81.9013 12.6946C81.2195 12.26 80.6953 11.6612 80.3288 10.8985C79.9624 10.1357 79.7791 9.26209 79.7791 8.27771C79.7791 7.28055 79.9666 6.40058 80.3416 5.6378C80.7166 4.87075 81.245 4.27203 81.9268 3.84163C82.6087 3.41124 83.4119 3.19604 84.3366 3.19604C85.0824 3.19604 85.7472 3.33453 86.331 3.61152C86.9148 3.88425 87.3856 4.26777 87.7436 4.76209C88.1058 5.25641 88.321 5.83382 88.3892 6.49433H86.5291C86.4268 6.0341 86.1925 5.6378 85.826 5.30541C85.4638 4.97303 84.978 4.80683 84.3686 4.80683C83.8359 4.80683 83.3693 4.94746 82.9687 5.22871C82.5724 5.5057 82.2635 5.902 82.0419 6.41763C81.8203 6.92899 81.7095 7.5341 81.7095 8.23297C81.7095 8.94888 81.8182 9.56678 82.0355 10.0867C82.2528 10.6065 82.5597 11.0092 82.956 11.2948C83.3565 11.5803 83.8274 11.723 84.3686 11.723C84.7308 11.723 85.0589 11.657 85.353 11.5249C85.6513 11.3885 85.9006 11.1946 86.1008 10.9432C86.3054 10.6918 86.4481 10.3892 86.5291 10.0355H88.3892C88.321 10.6705 88.1143 11.2372 87.7692 11.7358C87.424 12.2344 86.9616 12.6264 86.3821 12.9119C85.8068 13.1975 85.1314 13.3402 84.3558 13.3402ZM89.69 4.97302V3.32388H97.9741V4.97302H94.7717V13.1421H92.9052V4.97302H89.69ZM102.396 13.3594C101.774 13.3594 101.211 13.2443 100.708 13.0142C100.205 12.7798 99.807 12.4411 99.513 11.9979C99.2232 11.5547 99.0783 11.0114 99.0783 10.3679C99.0783 9.81393 99.1848 9.35797 99.3979 9.00001C99.611 8.64206 99.8986 8.35868 100.261 8.14987C100.623 7.94107 101.028 7.78339 101.475 7.67686C101.923 7.57033 102.379 7.48936 102.843 7.43396C103.431 7.36578 103.909 7.31038 104.275 7.26777C104.642 7.22089 104.908 7.14632 105.074 7.04405C105.24 6.94178 105.323 6.77558 105.323 6.54547V6.50072C105.323 5.94249 105.166 5.50996 104.85 5.20314C104.539 4.89632 104.075 4.74291 103.457 4.74291C102.813 4.74291 102.306 4.88567 101.936 5.17118C101.569 5.45243 101.316 5.76564 101.175 6.11081L99.3787 5.70172C99.5918 5.10513 99.9029 4.62359 100.312 4.25712C100.725 3.88638 101.2 3.61791 101.737 3.45172C102.274 3.28126 102.839 3.19604 103.431 3.19604C103.823 3.19604 104.239 3.24291 104.678 3.33666C105.121 3.42615 105.534 3.59234 105.918 3.83524C106.306 4.07814 106.623 4.42544 106.87 4.87714C107.117 5.32459 107.241 5.90626 107.241 6.62217V13.1421H105.374V11.7997H105.298C105.174 12.0469 104.989 12.2898 104.742 12.5284C104.494 12.7671 104.177 12.9652 103.789 13.1229C103.401 13.2806 102.937 13.3594 102.396 13.3594ZM102.811 11.8253C103.34 11.8253 103.791 11.7209 104.166 11.5121C104.546 11.3033 104.833 11.0306 105.029 10.6939C105.23 10.353 105.33 9.98865 105.33 9.60087V8.33524C105.262 8.40342 105.129 8.46734 104.933 8.527C104.742 8.5824 104.522 8.63141 104.275 8.67402C104.028 8.71237 103.787 8.74859 103.553 8.78268C103.318 8.81251 103.122 8.83808 102.965 8.85939C102.594 8.90626 102.255 8.9851 101.948 9.09589C101.646 9.20669 101.403 9.36649 101.22 9.5753C101.041 9.77984 100.951 10.0526 100.951 10.3935C100.951 10.8665 101.126 11.2244 101.475 11.4673C101.825 11.706 102.27 11.8253 102.811 11.8253ZM112.273 11.3523L112.177 12.049C112.113 12.5604 112.005 13.0931 111.851 13.647C111.702 14.2053 111.547 14.723 111.385 15.2003C111.227 15.6776 111.097 16.0568 110.995 16.3381H109.64C109.695 16.0739 109.772 15.7159 109.87 15.2642C109.968 14.8168 110.064 14.3161 110.157 13.7621C110.251 13.2081 110.321 12.6435 110.368 12.0682L110.432 11.3523H112.273ZM122.382 13.3594C121.76 13.3594 121.197 13.2443 120.695 13.0142C120.192 12.7798 119.793 12.4411 119.499 11.9979C119.21 11.5547 119.065 11.0114 119.065 10.3679C119.065 9.81393 119.171 9.35797 119.384 9.00001C119.597 8.64206 119.885 8.35868 120.247 8.14987C120.609 7.94107 121.014 7.78339 121.462 7.67686C121.909 7.57033 122.365 7.48936 122.83 7.43396C123.418 7.36578 123.895 7.31038 124.261 7.26777C124.628 7.22089 124.894 7.14632 125.06 7.04405C125.227 6.94178 125.31 6.77558 125.31 6.54547V6.50072C125.31 5.94249 125.152 5.50996 124.837 5.20314C124.526 4.89632 124.061 4.74291 123.443 4.74291C122.8 4.74291 122.293 4.88567 121.922 5.17118C121.555 5.45243 121.302 5.76564 121.161 6.11081L119.365 5.70172C119.578 5.10513 119.889 4.62359 120.298 4.25712C120.712 3.88638 121.187 3.61791 121.724 3.45172C122.261 3.28126 122.825 3.19604 123.418 3.19604C123.81 3.19604 124.225 3.24291 124.664 3.33666C125.107 3.42615 125.521 3.59234 125.904 3.83524C126.292 4.07814 126.609 4.42544 126.857 4.87714C127.104 5.32459 127.227 5.90626 127.227 6.62217V13.1421H125.361V11.7997H125.284C125.161 12.0469 124.975 12.2898 124.728 12.5284C124.481 12.7671 124.163 12.9652 123.776 13.1229C123.388 13.2806 122.923 13.3594 122.382 13.3594ZM122.798 11.8253C123.326 11.8253 123.778 11.7209 124.153 11.5121C124.532 11.3033 124.82 11.0306 125.016 10.6939C125.216 10.353 125.316 9.98865 125.316 9.60087V8.33524C125.248 8.40342 125.116 8.46734 124.92 8.527C124.728 8.5824 124.509 8.63141 124.261 8.67402C124.014 8.71237 123.773 8.74859 123.539 8.78268C123.305 8.81251 123.109 8.83808 122.951 8.85939C122.58 8.90626 122.241 8.9851 121.935 9.09589C121.632 9.20669 121.389 9.36649 121.206 9.5753C121.027 9.77984 120.937 10.0526 120.937 10.3935C120.937 10.8665 121.112 11.2244 121.462 11.4673C121.811 11.706 122.256 11.8253 122.798 11.8253ZM129.773 13.1421V3.32388H133.845C134.953 3.32388 135.83 3.56038 136.478 4.03339C137.126 4.50214 137.45 5.13922 137.45 5.94462C137.45 6.5199 137.267 6.97587 136.9 7.31251C136.534 7.64916 136.048 7.87501 135.443 7.99007C135.882 8.04121 136.284 8.17331 136.651 8.38638C137.017 8.59518 137.311 8.87643 137.533 9.23013C137.759 9.58382 137.872 10.0057 137.872 10.4958C137.872 11.0156 137.737 11.4759 137.469 11.8764C137.2 12.2727 136.811 12.5838 136.299 12.8097C135.792 13.0313 135.181 13.1421 134.465 13.1421H129.773ZM131.569 11.544H134.465C134.938 11.544 135.308 11.4311 135.577 11.2053C135.845 10.9794 135.98 10.6726 135.98 10.2848C135.98 9.82885 135.845 9.47089 135.577 9.21095C135.308 8.94675 134.938 8.81464 134.465 8.81464H131.569V11.544ZM131.569 7.41479H133.864C134.222 7.41479 134.529 7.36365 134.784 7.26138C135.044 7.1591 135.242 7.01422 135.379 6.82672C135.519 6.63496 135.59 6.4091 135.59 6.14916C135.59 5.7699 135.434 5.47374 135.123 5.26067C134.812 5.0476 134.386 4.94106 133.845 4.94106H131.569V7.41479ZM139.418 4.97302V3.32388H147.703V4.97302H144.5V13.1421H142.634V4.97302H139.418ZM153.403 13.3402C152.482 13.3402 151.679 13.1293 150.993 12.7074C150.307 12.2855 149.774 11.6953 149.395 10.9368C149.016 10.1783 148.826 9.29192 148.826 8.27771C148.826 7.25925 149.016 6.36862 149.395 5.60584C149.774 4.84305 150.307 4.25072 150.993 3.82885C151.679 3.40697 152.482 3.19604 153.403 3.19604C154.323 3.19604 155.126 3.40697 155.812 3.82885C156.499 4.25072 157.031 4.84305 157.411 5.60584C157.79 6.36862 157.979 7.25925 157.979 8.27771C157.979 9.29192 157.79 10.1783 157.411 10.9368C157.031 11.6953 156.499 12.2855 155.812 12.7074C155.126 13.1293 154.323 13.3402 153.403 13.3402ZM153.409 11.7358C154.006 11.7358 154.5 11.5781 154.892 11.2628C155.284 10.9475 155.574 10.5277 155.761 10.0036C155.953 9.47942 156.049 8.902 156.049 8.27132C156.049 7.6449 155.953 7.06962 155.761 6.54547C155.574 6.01706 155.284 5.59305 154.892 5.27345C154.5 4.95385 154.006 4.79405 153.409 4.79405C152.808 4.79405 152.31 4.95385 151.913 5.27345C151.521 5.59305 151.229 6.01706 151.038 6.54547C150.85 7.06962 150.756 7.6449 150.756 8.27132C150.756 8.902 150.85 9.47942 151.038 10.0036C151.229 10.5277 151.521 10.9475 151.913 11.2628C152.31 11.5781 152.808 11.7358 153.409 11.7358ZM160.113 16.8239V3.32388H161.979V4.9155H162.139C162.25 4.71095 162.41 4.47445 162.618 4.20598C162.827 3.93751 163.117 3.70314 163.488 3.50285C163.858 3.29831 164.349 3.19604 164.958 3.19604C165.751 3.19604 166.458 3.39632 167.08 3.79689C167.702 4.19746 168.19 4.77487 168.544 5.52913C168.902 6.28339 169.081 7.19106 169.081 8.25214C169.081 9.31322 168.904 10.223 168.55 10.9815C168.197 11.7358 167.711 12.3175 167.093 12.7266C166.475 13.1314 165.77 13.3338 164.977 13.3338C164.38 13.3338 163.893 13.2337 163.513 13.0334C163.138 12.8331 162.844 12.5987 162.631 12.3303C162.418 12.0618 162.254 11.8232 162.139 11.6144H162.024V16.8239H160.113ZM161.986 8.23297C161.986 8.92331 162.086 9.52842 162.286 10.0483C162.486 10.5682 162.776 10.9752 163.155 11.2692C163.535 11.559 163.999 11.7038 164.549 11.7038C165.12 11.7038 165.597 11.5526 165.981 11.25C166.364 10.9432 166.654 10.5277 166.85 10.0036C167.05 9.47942 167.15 8.88922 167.15 8.23297C167.15 7.58524 167.052 7.00356 166.856 6.48794C166.665 5.97231 166.375 5.56535 165.987 5.26706C165.604 4.96876 165.124 4.81962 164.549 4.81962C163.995 4.81962 163.526 4.96237 163.143 5.24788C162.763 5.53339 162.476 5.93183 162.28 6.4432C162.084 6.95456 161.986 7.55115 161.986 8.23297ZM173.095 10.4638L177.422 3.32388H179.481V13.1421H177.608V5.99575L173.3 13.1421H171.222V3.32388H173.095V10.4638ZM181.469 10.5469H183.425C183.45 10.9475 183.631 11.2564 183.968 11.4737C184.309 11.6911 184.75 11.7997 185.291 11.7997C185.841 11.7997 186.309 11.6825 186.697 11.4482C187.085 11.2095 187.279 10.8409 187.279 10.3423C187.279 10.044 187.204 9.7841 187.055 9.56251C186.91 9.33666 186.704 9.16195 186.435 9.03837C186.171 8.91479 185.858 8.853 185.496 8.853H183.898V7.35087H185.496C186.037 7.35087 186.442 7.22729 186.71 6.98013C186.979 6.73297 187.113 6.42402 187.113 6.05328C187.113 5.65271 186.968 5.33098 186.678 5.08808C186.393 4.84092 185.994 4.71734 185.483 4.71734C184.963 4.71734 184.53 4.83453 184.185 5.06891C183.84 5.29902 183.659 5.59731 183.642 5.96379H181.711C181.724 5.41408 181.89 4.93254 182.21 4.51919C182.534 4.10158 182.969 3.77771 183.514 3.5476C184.064 3.31322 184.688 3.19604 185.387 3.19604C186.116 3.19604 186.746 3.31322 187.279 3.5476C187.812 3.78197 188.223 4.10584 188.513 4.51919C188.807 4.93254 188.954 5.40768 188.954 5.94462C188.954 6.48581 188.792 6.92899 188.468 7.27416C188.148 7.61507 187.731 7.8601 187.215 8.00925V8.11152C187.594 8.13709 187.931 8.25214 188.225 8.45669C188.519 8.66124 188.749 8.93183 188.915 9.26848C189.081 9.60513 189.165 9.98652 189.165 10.4127C189.165 11.0135 188.998 11.5334 188.666 11.9723C188.338 12.4112 187.882 12.75 187.298 12.9887C186.719 13.223 186.056 13.3402 185.31 13.3402C184.586 13.3402 183.936 13.2273 183.361 13.0014C182.79 12.7713 182.336 12.4475 181.999 12.0298C181.667 11.6122 181.49 11.1179 181.469 10.5469ZM193.011 10.4638L197.338 3.32388H199.397V13.1421H197.524V5.99575L193.216 13.1421H191.138V3.32388H193.011V10.4638ZM201.966 16.8239V3.32388H203.833V4.9155H203.993C204.103 4.71095 204.263 4.47445 204.472 4.20598C204.681 3.93751 204.971 3.70314 205.341 3.50285C205.712 3.29831 206.202 3.19604 206.811 3.19604C207.604 3.19604 208.311 3.39632 208.934 3.79689C209.556 4.19746 210.044 4.77487 210.397 5.52913C210.755 6.28339 210.934 7.19106 210.934 8.25214C210.934 9.31322 210.757 10.223 210.404 10.9815C210.05 11.7358 209.564 12.3175 208.946 12.7266C208.328 13.1314 207.623 13.3338 206.831 13.3338C206.234 13.3338 205.746 13.2337 205.367 13.0334C204.992 12.8331 204.698 12.5987 204.485 12.3303C204.272 12.0618 204.108 11.8232 203.993 11.6144H203.877V16.8239H201.966ZM203.839 8.23297C203.839 8.92331 203.939 9.52842 204.14 10.0483C204.34 10.5682 204.63 10.9752 205.009 11.2692C205.388 11.559 205.853 11.7038 206.402 11.7038C206.973 11.7038 207.451 11.5526 207.834 11.25C208.218 10.9432 208.507 10.5277 208.703 10.0036C208.904 9.47942 209.004 8.88922 209.004 8.23297C209.004 7.58524 208.906 7.00356 208.71 6.48794C208.518 5.97231 208.228 5.56535 207.841 5.26706C207.457 4.96876 206.978 4.81962 206.402 4.81962C205.848 4.81962 205.38 4.96237 204.996 5.24788C204.617 5.53339 204.329 5.93183 204.133 6.4432C203.937 6.95456 203.839 7.55115 203.839 8.23297ZM213.95 16.8239C213.664 16.8239 213.404 16.8004 213.17 16.7536C212.936 16.711 212.761 16.6641 212.646 16.6129L213.106 15.0469C213.455 15.1406 213.767 15.1811 214.039 15.1683C214.312 15.1556 214.553 15.0533 214.762 14.8615C214.975 14.6698 215.162 14.3565 215.324 13.9219L215.561 13.2699L211.968 3.32388H214.014L216.5 10.9432H216.602L219.089 3.32388H221.141L217.095 14.4524C216.907 14.9638 216.668 15.3963 216.379 15.75C216.089 16.108 215.744 16.3764 215.343 16.5554C214.943 16.7344 214.478 16.8239 213.95 16.8239ZM224.81 10.4638L229.137 3.32388H231.195V13.1421H229.323V5.99575L225.014 13.1421H222.937V3.32388H224.81V10.4638ZM228.319 1.29938e-05H229.892C229.892 0.720184 229.636 1.30612 229.124 1.75783C228.617 2.20527 227.931 2.42899 227.066 2.42899C226.205 2.42899 225.521 2.20527 225.014 1.75783C224.507 1.30612 224.254 0.720184 224.254 1.29938e-05H225.82C225.82 0.319616 225.914 0.602996 226.101 0.850155C226.289 1.09305 226.61 1.2145 227.066 1.2145C227.514 1.2145 227.833 1.09305 228.025 0.850155C228.221 0.607258 228.319 0.323877 228.319 1.29938e-05ZM232.547 4.97302V3.32388H240.831V4.97302H237.629V13.1421H235.763V4.97302H232.547ZM246.627 13.3402C245.66 13.3402 244.827 13.1335 244.128 12.7202C243.434 12.3026 242.897 11.7166 242.517 10.9624C242.142 10.2038 241.955 9.31535 241.955 8.29689C241.955 7.29121 242.142 6.40484 242.517 5.6378C242.897 4.87075 243.425 4.27203 244.103 3.84163C244.784 3.41124 245.581 3.19604 246.493 3.19604C247.047 3.19604 247.584 3.28766 248.104 3.47089C248.624 3.65413 249.091 3.94178 249.504 4.33382C249.917 4.72587 250.243 5.2351 250.482 5.86152C250.721 6.48368 250.84 7.24007 250.84 8.1307V8.80825H243.035V7.37643H248.967C248.967 6.87359 248.865 6.42828 248.66 6.0405C248.456 5.64845 248.168 5.3395 247.797 5.11365C247.431 4.8878 247 4.77487 246.506 4.77487C245.969 4.77487 245.5 4.90697 245.1 5.17118C244.703 5.43112 244.397 5.77203 244.179 6.19391C243.966 6.61152 243.86 7.06535 243.86 7.55541V8.67402C243.86 9.33027 243.975 9.88851 244.205 10.3487C244.439 10.809 244.765 11.1605 245.183 11.4034C245.6 11.6421 246.088 11.7614 246.647 11.7614C247.009 11.7614 247.339 11.7102 247.637 11.608C247.936 11.5014 248.194 11.3438 248.411 11.135C248.628 10.9262 248.794 10.6683 248.909 10.3615L250.718 10.6875C250.574 11.2202 250.314 11.6868 249.939 12.0874C249.568 12.4837 249.101 12.7926 248.539 13.0142C247.98 13.2315 247.343 13.3402 246.627 13.3402ZM257.096 13.3402C256.146 13.3402 255.328 13.125 254.642 12.6946C253.96 12.26 253.436 11.6612 253.069 10.8985C252.703 10.1357 252.519 9.26209 252.519 8.27771C252.519 7.28055 252.707 6.40058 253.082 5.6378C253.457 4.87075 253.985 4.27203 254.667 3.84163C255.349 3.41124 256.152 3.19604 257.077 3.19604C257.823 3.19604 258.487 3.33453 259.071 3.61152C259.655 3.88425 260.126 4.26777 260.484 4.76209C260.846 5.25641 261.061 5.83382 261.129 6.49433H259.269C259.167 6.0341 258.933 5.6378 258.566 5.30541C258.204 4.97303 257.718 4.80683 257.109 4.80683C256.576 4.80683 256.11 4.94746 255.709 5.22871C255.313 5.5057 255.004 5.902 254.782 6.41763C254.561 6.92899 254.45 7.5341 254.45 8.23297C254.45 8.94888 254.558 9.56678 254.776 10.0867C254.993 10.6065 255.3 11.0092 255.696 11.2948C256.097 11.5803 256.568 11.723 257.109 11.723C257.471 11.723 257.799 11.657 258.093 11.5249C258.392 11.3885 258.641 11.1946 258.841 10.9432C259.046 10.6918 259.188 10.3892 259.269 10.0355H261.129C261.061 10.6705 260.855 11.2372 260.509 11.7358C260.164 12.2344 259.702 12.6264 259.122 12.9119C258.547 13.1975 257.872 13.3402 257.096 13.3402ZM264.612 6.69888H267.462C268.664 6.69888 269.589 6.99717 270.237 7.59376C270.884 8.19035 271.208 8.95953 271.208 9.90129C271.208 10.5149 271.063 11.0668 270.773 11.5568C270.484 12.0469 270.06 12.4347 269.501 12.7202C268.943 13.0014 268.263 13.1421 267.462 13.1421H263.173V3.32388H265.046V11.4929H267.462C268.012 11.4929 268.464 11.3502 268.817 11.0646C269.171 10.7749 269.348 10.4063 269.348 9.95882C269.348 9.48581 269.171 9.10016 268.817 8.80186C268.464 8.4993 268.012 8.34802 267.462 8.34802H264.612V6.69888Z" fill="#E0E0E0"/>
</g>
<defs>
<filter id="filter0_i_1046_68" x="0" y="0" width="271.208" height="20.8239" filterUnits="userSpaceOnUse" color-interpolation-filters="sRGB">
<feFlood flood-opacity="0" result="BackgroundImageFix"/>
<feBlend mode="normal" in="SourceGraphic" in2="BackgroundImageFix" result="shape"/>
<feColorMatrix in="SourceAlpha" type="matrix" values="0 0 0 0 0 0 0 0 0 0 0 0 0 0 0 0 0 0 127 0" result="hardAlpha"/>
<feOffset dy="4"/>
<feGaussianBlur stdDeviation="2"/>
<feComposite in2="hardAlpha" operator="arithmetic" k2="-1" k3="1"/>
<feColorMatrix type="matrix" values="0 0 0 0 0 0 0 0 0 0 0 0 0 0 0 0 0 0 0.17 0"/>
<feBlend mode="normal" in2="shape" result="effect1_innerShadow_1046_68"/>
</filter>
</defs>
</svg>
